Coordinates
nRows=12
nColumns=24

# SIMM Motion File Header:
name Coordinates
datacolumns 24
datarows 12
otherdata 1
range 1.25000000000000000000 1.26100000000000010000

Units are S.I. units (second, meters, Newtons, ...)
Angles are in degrees.

endheader
time	pelvis_tx	pelvis_ty	pelvis_tz	pelvis_tilt	pelvis_list	pelvis_rotation	hip_flexion_r	hip_adduction_r	hip_rotation_r	knee_angle_r	ankle_angle_r	subtalar_angle_r	mtp_angle_r	hip_flexion_l	hip_adduction_l	hip_rotation_l	knee_angle_l	ankle_angle_l	subtalar_angle_l	mtp_angle_l	lumbar_extension	lumbar_bending	lumbar_rotation
      1.25000000000000000000	      0.59372813366086596000	      1.00867609847541330000	      0.05085947330790832600	      4.75246425905273370000	     -4.22919515887178310000	     -4.11107748044847640000	    -21.14385431094520800000	      4.64424024097531520000	      2.87757418606264230000	     -8.25151971543352760000	     13.96322779215498900000	      0.02481207590829386300	     -0.05423106778844993800	     19.02172635277625900000	     -5.42779607114429740000	     -3.48828629398062740000	     -2.84156156714083390000	     -0.60733642795701948000	     -0.00180667187706039560	      0.00282477821794824150	    -16.58534904416403700000	      3.12837204707113470000	      3.86297554659144550000
      1.25100000000000010000	      0.59385179686266265000	      1.00858020816713000000	      0.05081331626965520500	      4.74797278855201110000	     -4.22203195326159970000	     -4.12954379225441140000	    -21.16716220134868100000	      4.61995470640780500000	      2.90660141504811610000	     -8.34147569359232400000	     14.00013055681878700000	      0.02444993888126405600	     -0.05470468868587838300	     19.04544386178296700000	     -5.41364856197036120000	     -3.45949400889932510000	     -2.96450091568627540000	     -0.64095163836359481000	     -0.00177901422589794990	      0.00274006152318943860	    -16.57216348671299100000	      3.09706642874914720000	      3.86034126310419800000
      1.25200000000000000000	      0.59397754856287721000	      1.00848561599902990000	      0.05076681461907484700	      4.74341209226221580000	     -4.21474780481082870000	     -4.14782598115032200000	    -21.18959543508406900000	      4.59572427475484700000	      2.93539790679377030000	     -8.43322555898769540000	     14.03682280894487500000	      0.02407657547107672900	     -0.05518343032640403400	     19.06936053928616600000	     -5.39932791948931360000	     -3.43119598707860310000	     -3.08970911632635260000	     -0.67560084437624823000	     -0.00175174997179976040	      0.00264471827012465910	    -16.55870229654741300000	      3.06554377517302170000	      3.85751272312259810000
      1.25300000000000010000	      0.59410539935157713000	      1.00839235954210340000	      0.05071995799996510000	      4.73878803878274460000	     -4.20734630171139300000	     -4.16592049060544230000	    -21.21114483156373300000	      4.57155503495987240000	      2.96394677643793210000	     -8.52679252114567100000	     14.07325967154057100000	      0.02369201089631636100	     -0.05566594552891859100	     19.09345952892973500000	     -5.38483494794177900000	     -3.40338736783843170000	     -3.21712227837941620000	     -0.71126340340560490000	     -0.00172505244251295830	      0.00253925296651615150	    -16.54497018778407000000	      3.03380950929548730000	      3.85448840614037770000
      1.25400000000000000000	      0.59423535987919329000	      1.00830047971453520000	      0.05067273491431689700	      4.73410672666374400000	     -4.19983062301045700000	     -4.18382371078447870000	    -21.23180097816944900000	      4.54745248519475890000	      2.99223064478945180000	     -8.62219933584139580000	     14.10939318426723700000	      0.02329766211040029700	     -0.05614766928309541200	     19.11772377616581100000	     -5.37017025114442430000	     -3.37606301101116870000	     -3.34667524441777560000	     -0.74792224967795917000	     -0.00169980897477485880	      0.00243105000317592750	    -16.53097203732904700000	      3.00186878301285320000	      3.85126660866511680000
      1.25500000000000010000	      0.59436744019608967000	      1.00821001815405680000	      0.05062513315414575400	      4.72937432783782170000	     -4.19220394781060610000	     -4.20153211537187230000	    -21.25155429863386300000	      4.52342193533215480000	      3.02023183776495420000	     -8.71946920891232760000	     14.14517590790623700000	      0.02289395816844471500	     -0.05662672319942027600	     19.14213606563151500000	     -5.35533469863732850000	     -3.34921779141881300000	     -3.47830348493179380000	     -0.78555530692612341000	     -0.00167600648783623310	      0.00232168658183112920	    -16.51671288557771800000	      2.96972684237922420000	      3.84784572746082800000
      1.25600000000000000000	      0.59450164952531370000	      1.00812101675215240000	      0.05057713983725677800	      4.72459707728358240000	     -4.18446945647477350000	     -4.21904227038779300000	    -21.27039511185258300000	      4.49946848064822010000	      3.04793240484623110000	     -8.81862579331017220000	     14.18056117756057000000	      0.02248034004172471200	     -0.05710431125049381100	     19.16667896255195600000	     -5.34032940232944410000	     -3.32284667911250420000	     -3.61194311206762730000	     -0.82413527425708510000	     -0.00165289990397298480	      0.00220646523421812830	    -16.50219796574765100000	      2.93738901418395670000	      3.84422428181122470000
      1.25700000000000010000	      0.59463799661611638000	      1.00803351913102810000	      0.05052874119906833300	      4.71978132984224620000	     -4.17663016433083990000	     -4.23635079604876190000	    -21.28831356304463200000	      4.47559684431970070000	      3.07531406266909530000	     -8.91969277741761780000	     14.21550201373298900000	      0.02205622309198740000	     -0.05758290835337846700	     19.19133484893072600000	     -5.32515554007814010000	     -3.29694471954630060000	     -3.74753012293042960000	     -0.86363257882426425000	     -0.00162993468688577070	      0.00207852510115252120	    -16.48743266649324100000	      2.90486057157662450000	      3.84040080810394800000
      1.25800000000000000000	      0.59477648993540888000	      1.00794757254882250000	      0.05047992222761679700	      4.71493364626383200000	     -4.16868864628130260000	     -4.25345426155428450000	    -21.30529956743970400000	      4.45181112596103650000	      3.10235806773325960000	     -9.02269333296887940000	     14.24994818218636400000	      0.02162227157908913300	     -0.05806129624874450900	     19.21608595523749200000	     -5.30981410208611140000	     -3.27150664782804190000	     -3.88499940844941750000	     -0.90402190211726796000	     -0.00160702768412017910	      0.00193900211272837850	    -16.47242252694440300000	      2.87214650246563470000	      3.83637366813784550000
      1.25900000000000010000	      0.59491713734343843000	      1.00786322755255430000	      0.05043066664013068400	      4.71006079194415330000	     -4.16064699458543520000	     -4.27034915468058070000	    -21.32134287818355400000	      4.42811473751210020000	      3.12904519912041130000	     -9.12765004032596220000	     14.28384561409013100000	      0.02118054915382940100	     -0.05853354446144110000	     19.24091431379325500000	     -5.29430583015144050000	     -3.24652678432863210000	     -4.02428470883232590000	     -0.94528321214356181000	     -0.00158457630757760860	      0.00179865977004083360	    -16.45717328034543300000	      2.83925145670883380000	      3.83214102611825380000
      1.26000000000000000000	      0.59505994555838349000	      1.00778053467573490000	      0.05038095756580954200	      4.70516955240622450000	     -4.15250733944596730000	     -4.28703208531305080000	    -21.33643316405734300000	      4.40451088230336390000	      3.15535601805273160000	     -9.23458594238787530000	     14.31714176024897100000	      0.02073175525638614600	     -0.05899789782685679900	     19.26580177090067300000	     -5.27863174023263770000	     -3.22199969184915960000	     -4.16532073006907670000	     -0.98738989777836705000	     -0.00156242626916721590	      0.00165967603061036720	    -16.44169083663692600000	      2.80618019499599790000	      3.82770121930343250000
      1.26100000000000010000	      0.59520491992418023000	      1.00769954385496270000	      0.05033077763551899200	      4.70026672447936900000	     -4.14427184085029230000	     -4.30349979650663440000	    -21.35056007534971200000	      4.38100250280505940000	      3.18127092574981680000	     -9.34352453837821530000	     14.34978602691049000000	      0.02027559832349536800	     -0.05945744552938452700	     19.29072991108831700000	     -5.26279308102846160000	     -3.19792026705703100000	     -4.30804309140326500000	     -1.03030874327764700000	     -0.00153989326076098930	      0.00151545195229636390	    -16.42598131667883600000	      2.77293755624097440000	      3.82305277900653890000
